<?xml version="1.0" encoding="UTF-8" standalone="no"?>
<!-- Created with Inkscape (http://www.inkscape.org/) -->

<svg
   width="512.3988mm"
   height="332.58539mm"
   viewBox="0 0 512.39881 332.58539"
   version="1.1"
   id="svg5"
   inkscape:version="1.1 (c68e22c387, 2021-05-23)"
   sodipodi:docname="Blu by BCA Digital.svg"
   xmlns:inkscape="http://www.inkscape.org/namespaces/inkscape"
   xmlns:sodipodi="http://sodipodi.sourceforge.net/DTD/sodipodi-0.dtd"
   xmlns="http://www.w3.org/2000/svg"
   xmlns:svg="http://www.w3.org/2000/svg">
  <sodipodi:namedview
     id="namedview7"
     pagecolor="#ffffff"
     bordercolor="#666666"
     borderopacity="1.0"
     inkscape:pageshadow="2"
     inkscape:pageopacity="0.0"
     inkscape:pagecheckerboard="0"
     inkscape:document-units="mm"
     showgrid="false"
     showguides="true"
     inkscape:guide-bbox="true"
     inkscape:zoom="0.11313708"
     inkscape:cx="1418.633"
     inkscape:cy="1268.3728"
     inkscape:window-width="1366"
     inkscape:window-height="715"
     inkscape:window-x="-8"
     inkscape:window-y="-8"
     inkscape:window-maximized="1"
     inkscape:current-layer="layer1">
    <sodipodi:guide
       position="517.19053,-18.1123"
       orientation="0,-1"
       id="guide1557" />
  </sodipodi:namedview>
  <defs
     id="defs2" />
  <g
     inkscape:label="Layer 1"
     inkscape:groupmode="layer"
     id="layer1"
     transform="translate(351.89896,146.41989)">
    <path
       style="fill:#30cfd2;fill-opacity:1;stroke-width:0.663729"
       d="M 14.811283,50.317308 C 13.716131,50.162152 10.430673,49.712275 7.5102667,49.317584 -4.7066654,47.666463 -14.872546,42.889853 -21.066652,35.890224 c -3.994727,-4.514238 -9.126861,-15.118159 -11.182959,-23.106041 -4.173014,-16.2120468 -5.036452,-30.099942 -5.039475,-81.056688 l -0.0023,-39.664495 30.3655971,0.17263 30.3656019,0.17262 0.388316,41.151196 c 0.10504,11.131678 0.189484,15.03107 0.310437,21.461859 0.188787,15.932536 1.279966,40.8470303 17.171778,47.1583162 8.235532,3.081308 20.478,3.4063822 28.170627,0.7585384 15.468798,-5.3244336 27.405179,-24.2384486 29.910014,-46.7020026 0.395246,-3.544611 0.709525,-19.163189 0.709525,-35.261402 v -28.898365 h 30.19966 30.19967 v 79.215124 79.215132 l -3.81645,-0.568677 C 140.07344,47.462972 128.5206,39.227423 117.16113,21.764116 c -3.11245,-4.784861 -6.47256,-9.3397 -7.46692,-10.121863 -3.89893,-3.0668958 -7.93308,-1.044013 -13.975082,7.007656 -12.493294,16.648783 -28.867136,26.644628 -49.87255,30.446022 -5.547992,1.00403 -26.695179,1.836271 -31.035194,1.221377 z"
       id="path2359" />
    <path
       style="fill:#30cfd2;fill-opacity:1;stroke-width:0.663729"
       d="m -121.58502,-47.856143 v -98.563747 h 30.199678 30.199664 v 98.563747 98.563746 h -30.199664 -30.199678 z"
       id="path2357" />
    <path
       id="path2353"
       style="fill:#30cfd2;fill-opacity:1;stroke-width:0.663729"
       d="m -351.55833,50.163259 c -0.18734,-0.187343 -0.34063,-44.4951945 -0.34063,-98.461891 v -98.121258 h 30.53153 30.53154 v 32.06399 c 0,34.911191 0.004,34.951519 3.52389,34.068125 0.95658,-0.240087 3.91517,-2.388977 6.57463,-4.775308 12.81966,-11.503078 30.77432,-20.288027 47.31403,-23.150077 7.78067,-1.34637 22.91735,-1.35156 30.60761,-0.0105 31.36753,5.47004 52.53972,26.888037 59.10127,59.787409 1.8074,9.062329 1.61925,28.787417 -0.36325,38.080784 -5.59305,26.218515 -19.28364,44.569492 -40.44525,54.213148 -25.54417,11.640857 -63.29447,7.886321 -85.53854,-8.507408 -5.73319,-4.225336 -9.75153,-8.173151 -15.14613,-14.880318 -11.35618,-14.1192616 -13.02768,-13.95252 -23.66758,2.361026 -5.63111,8.63383 -9.50488,13.164477 -14.61323,17.091184 -4.27429,3.285593 -11.52242,6.975729 -16.4634,8.381801 -4.40159,1.252575 -11.13462,2.331163 -11.60649,1.859284 z m 151.1885,-75.3693 c 1.39233,-9.664585 -1.25745,-18.548231 -7.33347,-24.586266 -3.71073,-3.687533 -11.70582,-7.788069 -18.41902,-9.446774 -15.87746,-2.32764 -34.87175,-1.800091 -47.17745,9.179318 -2.91912,2.69075 -5.02754,6.221886 -6.3239,10.140373 -3.34407,10.108053 -1.2845,22.793624 6.20214,30.2802608 4.68449,3.9635142 9.56717,6.6050789 14.61359,8.3003641 6.44819,2.16618514 13.16372,2.7873797 20.07477,2.6473042 18.18628,0.6254496 35.80529,-10.9562242 38.36334,-26.5145801 z" />
    <g
       id="g64"
       transform="matrix(0.24412845,0,0,0.24412845,-351.87773,103.45663)"
       style="fill:#0060af;fill-opacity:1">
      <path
         inkscape:connector-curvature="0"
         d="m 147.34669,237.88336 c 0,-12.4911 0.13562,-45.8787 -0.17228,-49.99236 0.26842,-49.68172 -35.85414,-84.72767 -58.674773,-81.99559 -15.79108,1.37038 -29.025179,7.8093 -36.131016,26.33267 -6.585974,17.26296 -0.697885,40.22487 21.198868,45.61295 23.413963,5.78646 37.086001,10.60092 46.980501,17.39303 12.12372,8.3152 22.02105,24.2022 22.28381,42.669"
         style="fill:#0060af;fill-opacity:1;fill-rule:nonzero;stroke:none"
         id="path20" />
      <path
         inkscape:connector-curvature="0"
         d="m 156.69305,313.40296 c -41.28452,0 -83.71334,-10.1684 -126.085648,-30.2796 l -1.039728,-0.5113 -0.497275,-1.0595 C 10.055561,241.41496 0,197.51416 0,154.56275 0,111.67615 9.6430481,69.654125 28.67202,29.570445 l 0.522703,-1.06518 1.05952,-0.53118 C 69.45081,9.4056654 111.61685,-4.4667969e-5 155.61942,-4.4667969e-5 c 40.99069,0 84.7672,10.470869667969 126.57727,30.333339667969 l 1.07365,0.47749 0.49444,1.08494 c 19.37931,40.87763 29.59874,84.767165 29.59874,127.006815 0,42.07562 -9.81258,84.13432 -29.2145,124.98642 l -0.51139,1.0737 -1.07929,0.4974 c -38.5976,18.2716 -82.12548,27.9429 -125.86529,27.9429 M 34.529044,277.61956 c 41.163036,19.3623 82.215886,29.1411 122.164006,29.1411 42.3582,0 84.4847,-9.259 121.98321,-26.8101 18.62776,-39.5866 28.07019,-80.3286 28.07019,-121.04802 0,-40.88347 -9.85493,-83.411095 -28.49683,-123.085165 -40.57537,-19.0742 -82.95049,-29.1890696 -122.6302,-29.1890696 -42.60116,0 -83.43363,9.0355796 -121.446374,26.8609396 C 15.926699,72.341065 6.6396702,113.05204 6.6396702,154.56275 c 0,41.58951 9.6515028,84.13431 27.8893738,123.05681"
         style="fill:#0060af;fill-opacity:1;fill-rule:nonzero;stroke:none"
         id="path22" />
      <path
         inkscape:connector-curvature="0"
         d="m 137.56237,237.90306 c 0.0763,-16.0114 -8.86041,-30.1694 -20.54055,-37.7782 -10.36068,-6.7244 -24.270055,-11.1434 -46.70926,-16.83366 -6.936336,-1.77427 -14.191926,-5.71569 -16.438108,-10.73929 -5.941786,5.98692 -7.021076,19.44705 -5.97569,27.31295 1.21493,9.1034 11.852506,24.1062 27.869603,24.694 9.781485,0.3926 22.148198,-2.1051 28.078685,-3.365 10.23073,-2.2096 26.41735,4.1984 28.9941,16.6895"
         style="fill:#0060af;fill-opacity:1;fill-rule:nonzero;stroke:none"
         id="path24" />
      <path
         inkscape:connector-curvature="0"
         d="m 155.61942,28.465705 c -27.15761,0 -50.61679,17.91012 -50.53203,48.90172 0.0848,26.061425 21.04348,40.013175 28.52227,49.978385 11.30153,15.01678 17.4185,32.79128 18.05421,59.98852 0.49444,21.64533 0.46901,43.01923 0.5792,50.59413 h 5.99548 c -0.10447,-7.9252 -0.37579,-30.6158 -0.0651,-51.26375 0.40685,-27.20571 6.7442,-44.30212 18.05139,-59.3189 7.54378,-9.96521 28.48553,-23.91696 28.53075,-49.978385 0.10171,-30.9916 -23.34334,-48.90172 -50.47836,-48.90172"
         style="fill:#0060af;fill-opacity:1;fill-rule:nonzero;stroke:none"
         id="path26" />
      <path
         inkscape:connector-curvature="0"
         d="m 162.51335,237.88336 c 0,-12.4911 -0.14134,-45.8787 0.16105,-49.99236 -0.26558,-49.68172 35.83437,-84.72767 58.67478,-81.99559 15.79108,1.37038 29.01106,7.8093 36.13669,26.33267 6.58032,17.26296 0.6583,40.22487 -21.213,45.61295 -23.42528,5.78646 -37.08037,10.60092 -47.00029,17.39303 -12.10961,8.3152 -21.31472,24.2022 -21.59725,42.669"
         style="fill:#0060af;fill-opacity:1;fill-rule:nonzero;stroke:none"
         id="path28" />
      <path
         inkscape:connector-curvature="0"
         d="m 172.29202,237.90306 c -0.0848,-16.0114 8.84911,-30.1694 20.49535,-37.7782 10.40306,-6.7244 24.32939,-11.1434 46.74882,-16.83366 6.95045,-1.77427 14.19756,-5.71569 16.40418,-10.73929 5.97006,5.98692 7.04653,19.44705 6.00112,27.31295 -1.24034,9.1034 -11.84967,24.1062 -27.83852,24.694 -9.77866,0.3926 -22.21035,-2.1051 -28.11541,-3.365 -10.19116,-2.2096 -26.423,4.1984 -29.01106,16.6895"
         style="fill:#0060af;fill-opacity:1;fill-rule:nonzero;stroke:none"
         id="path30" />
      <path
         inkscape:connector-curvature="0"
         d="m 180.66928,289.59346 -3.47522,-25.3577 8.38857,-1.2714 c 2.04276,-0.2798 4.52909,0.076 5.52362,1.3561 1.09908,1.3363 1.43531,2.4412 1.64721,4.1928 0.31644,2.1671 -0.3108,4.6733 -2.75193,5.9221 v 0.076 c 2.7265,0 4.3737,1.958 4.85118,5.2637 0.0706,0.6978 0.27689,2.3846 0.0706,3.7916 -0.55379,3.3481 -2.55132,4.4246 -5.92201,4.8965 z m 5.39931,-4.5403 c 0.99453,-0.142 2.00319,-0.1949 2.79148,-0.698 1.20645,-0.7883 1.09626,-2.475 0.92956,-3.7265 -0.42099,-2.752 -1.13863,-3.7973 -4.05726,-3.3651 l -1.83367,0.2825 1.16123,7.6483 z m -1.75738,-11.717 c 1.11038,-0.1801 2.61629,-0.3136 3.24353,-1.3674 0.32775,-0.7035 0.74874,-1.263 0.47185,-2.8283 -0.34187,-1.8563 -0.95781,-3.0061 -3.31418,-2.5598 l -2.19533,0.3533 0.86457,6.4984"
         style="fill:#0060af;fill-opacity:1;fill-rule:nonzero;stroke:none"
         id="path32" />
      <path
         inkscape:connector-curvature="0"
         d="m 217.00657,274.34206 c 0.065,0.4719 0.14134,0.9974 0.16952,1.4691 0.67809,4.6253 -0.16952,8.4537 -5.36823,9.5075 -7.68505,1.4806 -9.15709,-3.2944 -10.51043,-9.9792 l -0.72047,-3.6165 c -1.05952,-6.3968 -1.51442,-11.2394 5.9785,-12.7312 4.22395,-0.7713 7.01544,0.9097 8.17668,5.1139 0.18075,0.6272 0.40685,1.2489 0.49161,1.8789 l -4.59691,0.9494 c -0.53116,-1.5794 -1.23468,-4.4019 -3.30286,-4.1646 -3.71256,0.4463 -2.48636,5.0658 -2.10493,6.9956 l 1.38161,6.942 c 0.41533,2.0993 1.24036,5.4529 4.45282,4.8059 2.60782,-0.5227 1.47202,-4.5856 1.24034,-6.2496"
         style="fill:#0060af;fill-opacity:1;fill-rule:nonzero;stroke:none"
         id="path34" />
      <path
         inkscape:connector-curvature="0"
         d="m 224.38364,282.01576 -1.59068,-26.2422 6.17628,-1.8845 12.94875,22.8236 -4.8625,1.4549 -3.06836,-5.8004 -5.39932,1.6217 0.69789,6.5944 z m 3.75212,-12.265 3.90185,-1.1301 -5.18175,-10.6179"
         style="fill:#0060af;fill-opacity:1;fill-rule:nonzero;stroke:none"
         id="path36" />
      <path
         inkscape:connector-curvature="0"
         d="m 71.835428,262.17606 c 1.932564,-6.1876 3.66454,-10.7423 11.038775,-8.7192 3.947071,1.1019 6.393862,2.8422 6.278014,7.4278 -0.01907,1.0201 -0.355999,2.0597 -0.576379,3.0684 l -4.591259,-1.2685 c 0.601808,-2.5316 0.983235,-4.5404 -2.135991,-5.501 -3.605185,-0.9889 -4.483866,3.382 -4.981141,5.2692 l -1.867573,6.8799 c -0.593331,2.0428 -1.305328,5.419 1.867573,6.2893 2.621951,0.7063 4.21265,-1.8675 5.16198,-5.6254 l -3.212464,-0.8504 1.110377,-3.981 7.552256,2.4299 -3.585415,13.2595 -3.475224,-0.9437 0.782625,-2.8028 h -0.09896 c -1.599155,2.2915 -3.551489,2.5316 -5.260854,2.2038 -7.552256,-2.0428 -6.763973,-6.9786 -4.96137,-13.5731"
         style="fill:#0060af;fill-opacity:1;fill-rule:nonzero;stroke:none"
         id="path38" />
      <path
         inkscape:connector-curvature="0"
         d="m 99.945183,273.37576 -2.274429,10.7874 -5.119598,-1.1076 5.455826,-25.1884 8.727598,1.9722 c 5.10831,1.1019 6.65097,3.3763 5.92768,8.0581 -0.41252,2.6869 -1.73761,5.5828 -4.97269,5.3484 l -0.0339,-0.044 c 2.73498,0.9578 2.96665,2.3365 2.48917,4.7213 -0.20618,1.0141 -1.62742,7.1708 -0.64703,8.1652 l 0.0339,0.7544 -5.2976,-1.3816 c -0.22038,-1.7064 0.52836,-4.7748 0.82502,-6.473 0.29949,-1.503 0.77697,-3.6221 -0.74874,-4.4188 -1.19513,-0.6358 -1.63871,-0.6046 -2.98924,-0.9155 z m 0.873047,-3.9018 3.44697,0.9295 c 2.09361,0.3023 3.25767,-0.7826 3.67018,-3.3113 0.37295,-2.3197 -0.11019,-3.2266 -1.98908,-3.6759 l -3.6956,-0.7486"
         style="fill:#0060af;fill-opacity:1;fill-rule:nonzero;stroke:none"
         id="path40" />
      <path
         inkscape:connector-curvature="0"
         d="m 132.78181,263.49536 5.06311,0.5878 -2.18121,17.7067 c -1.05952,5.614 -3.22942,8.0693 -9.4057,7.3007 -6.28367,-0.794 -7.77547,-3.656 -7.39405,-9.3153 l 2.19533,-17.6925 5.10265,0.5849 -2.18967,17.2969 c -0.23168,1.8789 -0.6668,4.6618 2.67565,4.9981 2.96381,0.2261 3.63627,-1.7376 3.96966,-4.1787"
         style="fill:#0060af;fill-opacity:1;fill-rule:nonzero;stroke:none"
         id="path42" />
      <path
         inkscape:connector-curvature="0"
         d="m 143.42787,290.05966 1.52289,-25.3211 9.72781,0.4211 c 4.59689,0.2259 5.80051,3.9808 5.65641,7.5635 -0.13286,2.1783 -0.81371,4.611 -2.71237,5.9305 -1.55679,1.1216 -3.55717,1.3871 -5.41344,1.2969 l -3.17009,-0.1759 -0.63287,10.6121 z m 5.75531,-14.1467 2.57675,0.1441 c 2.09361,0.076 3.48088,-0.7515 3.6617,-3.8255 0.10171,-2.9525 -1.0143,-3.4526 -3.72667,-3.5713 l -2.04275,-0.07"
         style="fill:#0060af;fill-opacity:1;fill-rule:nonzero;stroke:none"
         id="path44" />
      <path
         inkscape:connector-curvature="0"
         d="m 829.5219,52.939205 -38.66259,70.174035 c -14.5931,-11.84967 -32.41283,-20.57163 -55.1487,-20.57163 -53.80382,0 -75.65817,40.10642 -75.65817,68.35745 0,20.97 13.73137,51.9107 61.60471,51.9107 20.09415,0 48.66161,-13.9799 56.88348,-20.3398 l -38.23876,81.4135 c -18.22657,3.6363 -24.21356,5.8909 -39.64298,6.3684 -85.68547,2.557 -120.31057,-50.0799 -120.28514,-103.86686 0.0566,-71.10373 63.27451,-157.577415 168.07371,-157.577415 6.42209,0 14.27667,2.22076 20.9926,4.68166 l 6.78658,-8.67958"
         style="fill:#0060af;fill-opacity:1;fill-rule:nonzero;stroke:none"
         id="path46" />
      <path
         inkscape:connector-curvature="0"
         d="M 989.05162,27.010645 1000,282.06386 h -81.47846 l -0.0481,-43.7427 h -55.55839 l -18.28589,43.7427 h -88.36393 l 92.38163,-182.129935 -20.83157,-0.13562 39.58083,-72.78766 z m -71.10645,78.025925 -31.41264,74.18607 h 32.35913"
         style="fill:#0060af;fill-opacity:1;fill-rule:nonzero;stroke:none"
         id="path48" />
      <path
         inkscape:connector-curvature="0"
         d="m 528.93477,27.010645 c 40.34935,0.22602 63.15021,22.12841 63.15021,53.76716 0,29.166455 -24.04686,54.984825 -50.44445,68.334775 27.1774,9.99042 29.52811,34.51491 29.52811,51.86558 0,41.9174 -42.06151,81.0857 -96.73556,81.0857 H 355.19617 l 46.51149,-179.59282 -19.10526,-0.11019 39.05531,-75.350205 c 0,0 74.46586,-0.22604 107.27706,0 M 489.3483,130.41969 c 8.3462,0 23.08339,-2.11332 26.7677,-18.26612 4.03747,-17.534195 -9.79278,-18.006105 -16.42679,-18.006105 l -23.70499,-0.10383 -8.26707,36.376905 z m -33.51472,45.07069 -10.91448,41.91738 h 27.91199 c 10.98228,0 25.94835,-5.4502 29.61569,-19.0911 3.62216,-13.68051 -6.84026,-22.82628 -17.78298,-22.82628"
         style="fill:#0060af;fill-opacity:1;fill-rule:nonzero;stroke:none"
         id="path50" />
    </g>
    <path
       style="fill:#00a6b5;fill-opacity:1;stroke-width:0.102445"
       d="m 32.320985,122.35472 c 0,-0.12176 1.897276,-11.4564 2.007308,-11.99199 l 0.05788,-0.28173 h 8.69972 c 4.784851,0 8.699721,0.0255 8.699721,0.0566 0,0.0312 -0.461002,2.77626 -1.024451,6.10028 -0.56345,3.32402 -1.024458,6.08763 -1.024458,6.14133 0,0.0612 -3.255143,0.0977 -8.707859,0.0977 -6.674533,0 -8.70786,-0.0286 -8.707861,-0.12219 z"
       id="path138" />
    <path
       style="fill:#00a6b5;fill-opacity:1;stroke-width:0.102445"
       d="m -43.320711,122.17516 c 0.03333,-0.16659 0.506931,-2.94441 1.052484,-6.17291 l 0.991906,-5.87002 8.726162,-0.0262 8.726156,-0.0262 -0.05537,0.2823 c -0.03046,0.15527 -0.503733,2.93307 -1.051725,6.17293 l -0.996351,5.8906 -8.726915,0.0262 -8.726915,0.0262 z"
       id="path136" />
    <path
       style="fill:#00a6b5;fill-opacity:1;stroke-width:0.102445"
       d="m 132.54225,171.52265 c 0.0286,-0.12678 2.41892,-13.63422 5.31203,-30.01652 l 5.2602,-29.786 h 8.63164 8.63164 v 0.46911 c 0,0.3565 -9.83179,56.39023 -10.35682,59.02607 l -0.10714,0.53784 h -8.71171 -8.7117 z"
       id="path124" />
    <path
       style="fill:#00a6b5;fill-opacity:1;stroke-width:0.102445"
       d="m 23.613125,171.63511 c 0,-0.20426 7.597705,-43.46792 7.647816,-43.549 0.02625,-0.0425 3.940446,-0.0771 8.698271,-0.0771 8.03395,0 8.650592,0.0123 8.650592,0.17215 0,0.12141 -5.895387,33.90725 -7.544911,43.2391 l -0.05886,0.33295 h -8.696459 c -6.495172,0 -8.696456,-0.0299 -8.696456,-0.11804 z"
       id="path122" />
    <path
       style="fill:#00a6b5;fill-opacity:1;stroke-width:0.102445"
       d="m -52.034736,171.57444 c 0.0222,-0.0989 1.724813,-9.81485 3.783501,-21.59094 2.058706,-11.7761 3.768691,-21.53787 3.799976,-21.69283 l 0.0569,-0.28172 h 8.699726 c 6.894308,0 8.698607,0.0266 8.694397,0.12806 -0.0028,0.0704 -1.721018,9.90135 -3.817986,21.84649 l -3.812668,21.71842 -8.722143,0.0262 c -8.272119,0.0249 -8.720041,0.0169 -8.681705,-0.15368 z"
       id="path120" />
    <path
       style="fill:#00a6b5;fill-opacity:1;stroke-width:0.102445"
       d="m 61.630231,172.05949 c -2.479641,-0.17204 -4.426679,-0.50586 -5.795862,-0.99374 -2.299346,-0.81933 -3.649946,-2.40679 -4.165336,-4.89588 -0.188337,-0.90957 -0.205835,-1.25998 -0.156039,-3.12459 0.05564,-2.08376 0.235823,-3.67081 0.674554,-5.94183 0.114286,-0.59162 0.877513,-4.99421 1.696067,-9.78354 0.818537,-4.78932 1.512029,-8.81158 1.541095,-8.93835 l 0.05284,-0.23051 h -3.126535 c -2.911609,0 -3.12613,-0.0123 -3.120644,-0.17928 0.0034,-0.0986 0.386326,-2.36905 0.851274,-5.04544 l 0.845361,-4.86616 3.229168,-0.027 3.229163,-0.027 0.638479,-3.55857 c 0.35115,-1.9572 0.897147,-4.99919 1.213318,-6.75997 l 0.574838,-3.20142 h 8.536379 c 4.69501,0 8.534002,0.0346 8.53109,0.0768 -0.0028,0.0422 -0.545283,3.07336 -1.205262,6.73579 l -1.199962,6.65895 4.184065,0.0267 4.184066,0.0267 -0.05788,0.28057 c -0.03182,0.15432 -0.405146,2.30901 -0.829566,4.78819 -0.424419,2.47917 -0.797441,4.63437 -0.828925,4.78932 l -0.05726,0.28172 h -4.192131 c -2.500669,0 -4.192115,0.0382 -4.192115,0.0948 0,0.0522 -0.672402,3.88999 -1.494222,8.52858 -1.584017,8.94063 -1.733384,9.94381 -1.571623,10.55523 0.153774,0.5812 0.697787,1.22769 1.259404,1.49664 1.060393,0.50783 1.8792,0.6334 4.129801,0.6334 h 2.085692 l -0.05357,0.23051 c -0.02946,0.12677 -0.443874,2.76603 -0.920935,5.86499 -0.477066,3.09898 -0.892279,5.77576 -0.922705,5.9484 l -0.05531,0.31389 -3.097908,0.1292 c -4.097603,0.17087 -8.836114,0.22221 -10.412896,0.11282 z"
       id="path118" />
    <path
       id="path108"
       style="fill:#00a6b5;fill-opacity:1;stroke-width:0.102445"
       d="m 84.552155,171.21899 c -1.35826,-0.67891 -1.540032,-0.8047 -2.402008,-1.66245 -0.976038,-0.97126 -1.537633,-1.81478 -2.019134,-3.03276 -0.580695,-1.46887 -0.69623,-2.60228 -0.521647,-5.11761 0.179496,-2.58629 0.521613,-3.88772 1.535025,-5.8394 0.60545,-1.166 1.159721,-1.88559 2.474857,-3.21299 2.460277,-2.48322 5.083792,-4.0125 8.639064,-5.03582 1.496565,-0.43075 6.742209,-1.31459 11.246878,-1.89496 5.06025,-0.65197 7.83795,-1.18137 8.89636,-1.69555 0.70468,-0.34234 1.49255,-1.21417 1.77625,-1.96554 0.44035,-1.16629 0.0987,-2.5835 -0.78523,-3.25775 -0.46292,-0.35307 -1.91538,-0.78696 -3.25967,-0.97374 -1.37574,-0.19115 -3.64841,0.18947 -5.04158,0.84433 -0.78269,0.36791 -1.72343,1.3286 -2.12519,2.17026 -0.19183,0.40185 -0.37459,0.81129 -0.40618,0.9099 -0.0541,0.16884 -0.55009,0.17929 -8.509823,0.17929 h -8.452401 l 0.05989,-0.33295 c 0.859873,-4.78067 3.656629,-8.53392 8.130621,-10.91132 3.967179,-2.10809 9.155923,-3.14944 16.749823,-3.36162 6.3292,-0.17683 12.25104,0.66856 15.63165,2.23157 1.92265,0.88893 3.48281,2.22909 4.20863,3.61523 0.75612,1.44396 1.21226,3.62286 1.21226,5.79073 0,1.54338 -0.10392,2.77487 -0.41902,4.96604 -0.21577,1.50033 -3.96281,22.67349 -4.03254,22.78629 -0.022,0.0356 -0.0918,0.44331 -0.15522,0.90593 -0.20435,1.49248 0.2256,2.826 1.20106,3.72514 0.44565,0.41078 0.45595,0.43419 0.36978,0.83969 l -0.0886,0.41712 -1.48546,-0.0314 c -0.817,-0.0173 -4.85079,-0.13016 -8.96397,-0.25084 l -7.47852,-0.21944 -0.0275,-2.32867 -0.0275,-2.32867 -0.63836,0.51822 c -2.85195,2.31516 -6.52139,4.05726 -10.114569,4.80199 -5.319633,0.97149 -10.753738,0.9352 -15.177922,-1.24825 z m 19.275725,-7.87228 c 1.00195,-0.16072 2.27276,-0.63299 3.19694,-1.18808 2.84647,-1.70966 4.43981,-4.62396 5.04625,-9.22983 0.0315,-0.23946 0.0349,-0.43539 0.008,-0.43539 -0.0274,0 -0.38519,0.13266 -0.79515,0.29482 -1.53543,0.60729 -3.41611,1.1542 -5.13705,1.49388 -2.86562,0.56562 -4.79094,1.13149 -6.10225,1.79351 -0.74813,0.3777 -1.574559,1.26431 -1.983797,2.12825 -0.285109,0.60186 -0.332561,0.82223 -0.363015,1.68565 -0.03271,0.9278 -0.01613,1.02796 0.251388,1.51955 0.324843,0.59683 0.677229,0.92582 1.364921,1.2743 1.264063,0.64055 3.034483,0.9007 4.514223,0.66334 z"
       sodipodi:nodetypes="cssssssssssssssscssssssssssscsscccsccsssssssssssss" />
    <path
       id="path152"
       style="fill:#00a6b5;fill-opacity:1;stroke-width:0.102445"
       d="m -11.832992,186.09386 c -4.317143,-0.35587 -7.66252,-1.10359 -10.134201,-2.26507 -2.173386,-1.02131 -4.208169,-2.65554 -5.384489,-4.32453 -0.909457,-1.29037 -1.597227,-3.23786 -1.742423,-4.93387 -0.03513,-0.41013 -0.01838,-0.78092 0.03907,-0.86617 0.08779,-0.13021 1.159068,-0.11998 8.481978,0.081 4.609818,0.12654 8.57376,0.2535 8.80874,0.28216 0.411424,0.0502 0.429771,0.068 0.495374,0.48244 0.155719,0.98366 0.573844,1.50451 1.6419358,2.0454 0.8061208,0.40824 1.6156523,0.523 3.2059372,0.45453 2.0552601,-0.0885 3.5063411,-0.56989 4.7997799,-1.59229 1.37276304,-1.0851 2.9277818,-4.2213 3.1651458,-6.38352 0.039285,-0.35767 0.2220292,-1.434 0.4061455,-2.39187 0.184105,-0.95786 0.3254003,-1.75151 0.3139784,-1.76367 -0.011411,-0.0121 -0.3642813,0.23367 -0.7840967,0.54628 -3.1180135,2.32172 -6.59001,3.6787 -10.3185655,4.03287 -1.3177334,0.12516 -4.3257664,0.0415 -5.6078894,-0.15589 -3.198029,-0.49248 -6.33639,-2.09658 -8.468967,-4.32872 -2.868576,-3.00251 -4.4528,-7.57426 -4.23185,-12.21222 0.209737,-4.40218 0.964751,-7.65429 2.687596,-11.57633 1.345337,-3.06265 3.14066,-5.81972 5.188095,-7.96733 3.452036,-3.62094 7.641566,-5.75104 12.8683123,-6.54268 1.7674245,-0.26769 4.4486682,-0.2462 5.80746319,0.0466 3.82490561,0.82405 6.89568541,2.81843 8.74671191,5.6807 0.5208427,0.8054 0.6038088,0.89165 0.6523575,0.67812 0.030579,-0.13455 0.2414729,-1.28191 0.4686516,-2.54966 0.2271675,-1.26777 0.4387816,-2.4318 0.470248,-2.58675 l 0.057222,-0.28173 H 17.476486 25.1537 l -0.05419,0.2305 c -0.02979,0.12678 -1.460136,8.13673 -3.178524,17.7999 -3.725458,20.94967 -3.52114,19.8513 -4.144724,22.28187 -1.516964,5.9127 -2.72276,8.46851 -5.435336,11.52064 -1.722845,1.9385 -4.529347,3.80316 -7.0657431,4.69451 -1.7453908,0.61338 -5.11981218,1.2983 -8.2466611,1.67389 -1.9695058,0.23658 -6.9944915,0.34484 -8.8615268,0.19093 z m 10.3279812,-28.68754 c 1.28895843,-0.32349 2.40855661,-0.94664 3.3010613,-1.83732 1.6765386,-1.67312 2.9416648,-4.12894 3.4164826,-6.63196 0.2468804,-1.30148 0.3228145,-4.12522 0.1343871,-4.99782 -0.3779848,-1.75039 -1.0526857,-2.88838 -2.1965218,-3.70473 -1.1464049,-0.8182 -1.8283739,-1.01105 -3.50950558,-0.99248 -2.94386852,0.0325 -4.70472202,0.95444 -6.23235022,3.26297 -1.1842678,1.78963 -1.8931946,3.62122 -2.3373729,6.03875 -0.2302982,1.25348 -0.2581392,1.6316 -0.2153516,2.92513 0.040807,1.23325 0.094401,1.62475 0.3157099,2.30511 0.6870054,2.11222 2.2085896,3.45775 4.3473107,3.84436 0.6709747,0.12128 2.035418,0.024 2.9761505,-0.21201 z" />
    <path
       id="path112"
       style="fill:#00a6b5;fill-opacity:1;stroke-width:0.102445"
       d="m -89.723935,172.82435 c -5.972072,-0.81368 -10.078652,-4.10875 -12.187485,-9.77907 -1.06567,-2.86541 -1.28828,-5.75147 -0.83602,-10.83881 0.21453,-2.41324 1.00429,-5.46859 2.28258,-8.8307 0.97213,-2.55685 1.577937,-3.75163 3.038761,-5.99306 3.728425,-5.72075 8.454941,-9.14499 14.353179,-10.3985 3.584287,-0.76174 8.866057,-0.0431 11.581954,1.576 1.007134,0.60038 2.388975,1.8481 3.128131,2.82449 0.279314,0.36897 0.537447,0.6611 0.57363,0.64918 0.0362,-0.0119 0.877158,-4.62196 1.86884,-10.24454 l 1.803073,-10.22287 8.728522,-0.0262 8.728522,-0.0262 -0.053,0.23108 c -0.02918,0.1271 -2.406641,13.6002 -5.283277,29.94025 -2.876635,16.34004 -5.254036,29.78984 -5.28313,29.88845 -0.0498,0.16871 -0.514295,0.17928 -7.885006,0.17928 h -7.832129 l 0.05194,-0.2305 c 0.02856,-0.12678 0.239979,-1.31387 0.469833,-2.63797 0.22986,-1.32411 0.444295,-2.52273 0.476538,-2.66359 0.04294,-0.18772 -0.307627,0.10179 -1.313057,1.08429 -2.09758,2.04975 -4.513715,3.73719 -6.383381,4.45821 -1.097592,0.42328 -2.839779,0.86617 -4.170311,1.06015 -1.33848,0.19515 -4.428529,0.19547 -5.858665,5.6e-4 z m 11.785565,-12.44196 c 1.944178,-0.4644 3.495993,-1.4847 4.753345,-3.12527 0.616304,-0.80412 1.27892,-1.89202 1.635449,-2.6851 1.248606,-2.77745 1.83481,-7.42476 1.237837,-9.81324 -0.329516,-1.31835 -0.856401,-2.33187 -1.601393,-3.08041 -1.103134,-1.10841 -2.394858,-1.52957 -4.401261,-1.435 -2.093135,0.0987 -3.485132,0.67238 -5.102909,2.10322 -0.869638,0.76916 -2.204105,2.97929 -2.880256,4.77026 -0.765717,2.02825 -1.245234,5.10081 -1.165921,7.47081 0.05796,1.73198 0.242338,2.55233 0.84061,3.74035 0.5343,1.06099 1.626473,1.88198 2.95646,2.22239 0.707927,0.18121 2.628435,0.0946 3.728039,-0.16801 z" />
  </g>
</svg>
